SplineFontDB: 3.2
FontName: RetroGame
FullName: Retro Game
FamilyName: RetroGame
Weight: Regular
Copyright: 
Version: 
ItalicAngle: 0
UnderlinePosition: 0
UnderlineWidth: 0
Ascent: 819
Descent: 205
InvalidEm: 0
LayerCount: 2
Layer: 0 0 "Back" 1
Layer: 1 0 "Fore" 0
XUID: [1021 296 -1802340257 13421]
OS2Version: 0
OS2_WeightWidthSlopeOnly: 0
OS2_UseTypoMetrics: 0
CreationTime: 1609874488
ModificationTime: 1609877167
PfmFamily: 17
TTFWeight: 400
TTFWidth: 5
LineGap: 92
VLineGap: 92
OS2TypoAscent: 0
OS2TypoAOffset: 1
OS2TypoDescent: 0
OS2TypoDOffset: 1
OS2TypoLinegap: 92
OS2WinAscent: 0
OS2WinAOffset: 1
OS2WinDescent: 0
OS2WinDOffset: 1
HheadAscent: 0
HheadAOffset: 1
HheadDescent: 0
HheadDOffset: 1
OS2Vendor: 'PfEd'
MarkAttachClasses: 1
DEI: 91125
Encoding: win
UnicodeInterp: none
NameList: AGL For New Fonts
DisplaySize: -48
AntiAlias: 1
FitToEm: 0
WinInfo: 0 28 16
BeginPrivate: 0
EndPrivate
BeginChars: 261 62

StartChar: a
Encoding: 97 97 0
Width: 904
Flags: HW
LayerCount: 2
Fore
SplineSet
243 144 m 1
 243 144 146 142 81 142 c 0
 48 142 24 142 24 144 c 2
 24 271 l 1
 340 920 l 1
 617 920 l 1
 877 270 l 1
 877 144 l 1
 312 144 l 1
 383 326 l 1
 522 327 l 1
 416 584 l 1
 243 144 l 1
EndSplineSet
Validated: 1
EndChar

StartChar: b
Encoding: 98 98 1
Width: 900
Flags: HW
LayerCount: 2
Fore
SplineSet
35 137 m 1
 35 912 l 1
 791 912 l 1
 862 821 l 1
 862 560 l 1
 783 524 l 1
 862 498 l 1
 862 235 l 1
 773 137 l 1
 357 137 l 1
 357 276 l 1
 416 334 l 1
 538 334 l 1
 538 377 l 1
 495 420 l 1
 277 420 l 1
 277 137 l 1
 35 137 l 1
346 593 m 1
 478 593 l 1
 539 659 l 1
 539 705 l 1
 305 705 l 1
 305 625 l 1
 346 593 l 1
EndSplineSet
Validated: 1
EndChar

StartChar: c
Encoding: 99 99 2
Width: 900
Flags: HW
LayerCount: 2
Fore
SplineSet
859 892 m 1
 860 820 l 1
 801 679 l 1
 370 679 l 1
 320 628 l 1
 320 345 l 1
 371 305 l 1
 850 305 l 1
 850 212 l 1
 777 116 l 1
 133 116 l 1
 40 210 l 1
 40 779 l 1
 126 892 l 1
 859 892 l 1
EndSplineSet
Validated: 1
EndChar

StartChar: d
Encoding: 100 100 3
Width: 970
Flags: HW
LayerCount: 2
Fore
SplineSet
38 113 m 1
 38 889 l 1
 842 889 l 1
 937 793 l 1
 937 227 l 1
 850 113 l 1
 386 113 l 1
 386 311 l 1
 595 311 l 1
 634 350 l 1
 634 350 634 468 634 547 c 0
 634 587 634 618 634 619 c 0
 633 623 581 673 581 673 c 1
 305 673 l 1
 305 113 l 1
 39 113 l 1
 38 113 l 1
EndSplineSet
Validated: 1
EndChar

StartChar: e
Encoding: 101 101 4
Width: 910
Flags: HW
LayerCount: 2
Fore
SplineSet
859 889 m 1
 859 777 l 1
 819 682 l 1
 347 682 l 1
 347 597 l 1
 745 597 l 1
 743 536 l 1
 658 397 l 1
 346 397 l 1
 346 308 l 1
 867 308 l 1
 867 178 l 1
 817 113 l 1
 44 113 l 1
 44 889 l 1
 859 889 l 1
EndSplineSet
Validated: 1
EndChar

StartChar: f
Encoding: 102 102 5
Width: 898
Flags: HW
LayerCount: 2
Fore
SplineSet
44 895 m 1
 855 895 l 1
 855 837 l 1
 793 686 l 1
 344 686 l 1
 344 600 l 1
 718 600 l 1
 718 536 l 1
 662 399 l 1
 342 399 l 1
 342 119 l 1
 44 119 l 1
 44 895 l 1
EndSplineSet
Validated: 1
EndChar

StartChar: g
Encoding: 103 103 6
Width: 944
Flags: HW
LayerCount: 2
Fore
SplineSet
893 895 m 1
 893 826 l 1
 813 687 l 1
 369 687 l 1
 369 309 l 1
 620 309 l 1
 620 401 l 1
 458 401 l 1
 458 469 l 1
 513 604 l 1
 883 604 l 1
 883 119 l 1
 144 119 l 1
 41 222 l 1
 41 801 l 1
 134 895 l 1
 893 895 l 1
EndSplineSet
Validated: 1
EndChar

StartChar: h
Encoding: 104 104 7
Width: 920
Flags: HW
LayerCount: 2
Fore
SplineSet
44 125 m 1
 43 901 l 1
 355 901 l 1
 355 611 l 1
 562 611 l 1
 562 901 l 1
 868 901 l 1
 868 125 l 1
 561 125 l 1
 561 395 l 1
 353 395 l 1
 353 125 l 1
 44 125 l 1
EndSplineSet
Validated: 1
EndChar

StartChar: i
Encoding: 105 105 8
Width: 399
Flags: HW
LayerCount: 2
Fore
SplineSet
37 125 m 1
 40 901 l 1
 355 901 l 1
 355 125 l 1
 37 125 l 1
EndSplineSet
Validated: 1
EndChar

StartChar: j
Encoding: 106 106 9
Width: 678
Flags: HW
LayerCount: 2
Fore
SplineSet
368 404 m 1
 366 895 l 1
 631 895 l 1
 634 221 l 1
 533 119 l 1
 56 119 l 1
 56 228 l 1
 80 320 l 1
 284 320 l 1
 368 404 l 1
EndSplineSet
Validated: 1
EndChar

StartChar: k
Encoding: 107 107 10
Width: 916
Flags: HW
LayerCount: 2
Fore
SplineSet
40 903 m 1
 304 903 l 1
 304 586 l 1
 422 586 l 1
 490 669 l 1
 596 903 l 1
 862 903 l 1
 862 786 l 1
 696 458 l 1
 851 256 l 1
 851 128 l 1
 563 128 l 1
 414 388 l 1
 305 388 l 1
 305 128 l 1
 40 128 l 1
 40 903 l 1
EndSplineSet
Validated: 1
EndChar

StartChar: l
Encoding: 108 108 11
Width: 906
Flags: HW
LayerCount: 2
Fore
SplineSet
46 906 m 1
 337 906 l 1
 337 329 l 1
 848 329 l 1
 848 234 l 1
 821 131 l 1
 46 131 l 1
 46 906 l 1
EndSplineSet
Validated: 1
EndChar

StartChar: m
Encoding: 109 109 12
Width: 1104
Flags: HW
LayerCount: 2
Fore
SplineSet
49 902 m 1
 969 902 l 1
 1059 745 l 1
 1059 126 l 1
 779 126 l 1
 779 595 l 1
 725 647 l 1
 671 596 l 1
 671 126 l 1
 444 126 l 1
 444 593 l 1
 386 651 l 1
 334 603 l 1
 334 126 l 1
 49 126 l 1
 49 902 l 1
EndSplineSet
Validated: 1
EndChar

StartChar: n
Encoding: 110 110 13
Width: 932
Flags: HW
LayerCount: 2
Fore
SplineSet
45 896 m 1
 783 896 l 1
 885 793 l 1
 885 121 l 1
 621 121 l 1
 621 609 l 1
 555 675 l 1
 371 675 l 1
 371 121 l 1
 45 121 l 1
 45 896 l 1
EndSplineSet
Validated: 1
EndChar

StartChar: o
Encoding: 111 111 14
Width: 1018
Flags: HW
LayerCount: 2
Fore
SplineSet
177 898 m 1
 874 898 l 1
 963 782 l 1
 963 206 l 1
 899 122 l 1
 502 122 l 1
 502 257 l 1
 548 302 l 1
 618 302 l 1
 676 360 l 1
 676 601 l 1
 603 674 l 1
 429 674 l 1
 362 607 l 1
 362 366 l 1
 420 307 l 1
 420 122 l 1
 149 122 l 1
 57 215 l 1
 57 805 l 1
 177 898 l 1
EndSplineSet
Validated: 1
EndChar

StartChar: p
Encoding: 112 112 15
Width: 958
Flags: HW
LayerCount: 2
Fore
SplineSet
46 124 m 1
 50 899 l 1
 774 899 l 1
 902 800 l 1
 902 510 l 1
 772 379 l 1
 408 379 l 1
 408 568 l 1
 564 568 l 1
 610 628 l 1
 610 684 l 1
 322 684 l 1
 322 124 l 1
 46 124 l 1
EndSplineSet
Validated: 1
EndChar

StartChar: q
Encoding: 113 113 16
Width: 982
Flags: HW
LayerCount: 2
Fore
SplineSet
136 927 m 1
 854 927 l 1
 941 839 l 1
 941 225 l 1
 846 152 l 1
 685 152 l 1
 716 98 l 1
 716 7 l 1
 556 7 l 1
 473 152 l 1
 473 281 l 1
 519 337 l 1
 607 337 l 1
 673 437 l 1
 673 588 l 1
 608 701 l 1
 395 701 l 1
 343 632 l 1
 343 391 l 1
 392 344 l 1
 392 152 l 1
 131 152 l 1
 44 240 l 1
 44 806 l 1
 136 927 l 1
EndSplineSet
Validated: 1
EndChar

StartChar: r
Encoding: 114 114 17
Width: 884
Flags: HW
LayerCount: 2
Fore
SplineSet
49 893 m 1
 765 893 l 1
 834 802 l 1
 834 428 l 1
 734 328 l 1
 809 230 l 1
 809 118 l 1
 522 118 l 1
 408 305 l 1
 408 510 l 1
 494 510 l 1
 577 573 l 1
 577 660 l 1
 325 660 l 1
 325 118 l 1
 49 118 l 1
 49 893 l 1
EndSplineSet
Validated: 1
EndChar

StartChar: s
Encoding: 115 115 18
Width: 932
Flags: HW
LayerCount: 2
Fore
SplineSet
881 902 m 1
 881 788 l 1
 814 701 l 1
 380 701 l 1
 380 616 l 1
 753 616 l 1
 880 518 l 1
 880 198 l 1
 788 126 l 1
 63 126 l 1
 63 218 l 1
 130 285 l 1
 597 285 l 1
 597 381 l 1
 153 381 l 1
 49 469 l 1
 49 802 l 1
 126 902 l 1
 881 902 l 1
EndSplineSet
Validated: 1
EndChar

StartChar: t
Encoding: 116 116 19
Width: 974
Flags: HW
LayerCount: 2
Fore
SplineSet
45 774 m 1
 112 887 l 1
 932 887 l 1
 932 756 l 1
 879 663 l 1
 627 663 l 1
 627 112 l 1
 330 112 l 1
 330 660 l 1
 45 660 l 1
 45 774 l 1
EndSplineSet
Validated: 1
EndChar

StartChar: u
Encoding: 117 117 20
Width: 894
Flags: HW
LayerCount: 2
Fore
SplineSet
49 905 m 1
 312 905 l 1
 312 416 l 1
 379 328 l 1
 479 328 l 1
 549 420 l 1
 549 905 l 1
 834 905 l 1
 834 234 l 1
 834 234 760 129 755 129 c 0
 750 129 139 129 139 129 c 1
 49 247 l 1
 49 905 l 1
EndSplineSet
Validated: 1
EndChar

StartChar: v
Encoding: 118 118 21
Width: 960
Flags: HW
LayerCount: 2
Fore
SplineSet
45 901 m 1
 346 901 l 1
 514 493 l 1
 682 901 l 1
 907 901 l 1
 907 796 l 1
 631 125 l 1
 376 125 l 1
 283 219 l 1
 43 763 l 1
 45 901 l 1
EndSplineSet
Validated: 1
EndChar

StartChar: w
Encoding: 119 119 22
Width: 1066
Flags: HW
LayerCount: 2
Fore
SplineSet
56 906 m 1
 300 906 l 1
 300 353 l 1
 349 307 l 1
 408 353 l 1
 408 906 l 1
 660 906 l 1
 660 349 l 1
 708 304 l 1
 748 349 l 1
 748 906 l 1
 1003 906 l 1
 1003 131 l 1
 133 131 l 1
 56 233 l 1
 56 906 l 1
EndSplineSet
Validated: 1
EndChar

StartChar: x
Encoding: 120 120 23
Width: 920
Flags: HW
LayerCount: 2
Fore
SplineSet
55 901 m 1
 330 901 l 1
 467 612 l 1
 503 612 l 1
 623 901 l 1
 853 901 l 1
 853 816 l 1
 724 501 l 1
 876 235 l 1
 876 125 l 1
 596 125 l 1
 445 388 l 1
 403 388 l 1
 294 125 l 1
 56 125 l 1
 56 264 l 1
 171 512 l 1
 55 756 l 1
 55 901 l 1
EndSplineSet
Validated: 1
EndChar

StartChar: y
Encoding: 121 121 24
Width: 870
Flags: HW
LayerCount: 2
Fore
SplineSet
338 903 m 1
 338 634 l 1
 418 554 l 1
 529 554 l 1
 561 610 l 1
 561 903 l 1
 812 903 l 1
 812 219 l 1
 742 128 l 1
 50 128 l 1
 50 213 l 1
 111 293 l 1
 529 293 l 1
 529 377 l 1
 109 377 l 1
 49 424 l 1
 46 903 l 1
 338 903 l 1
EndSplineSet
Validated: 1
EndChar

StartChar: z
Encoding: 122 122 25
Width: 940
Flags: HW
LayerCount: 2
Fore
SplineSet
51 839 m 1
 114 901 l 1
 785 901 l 1
 785 706 l 1
 524 319 l 1
 889 319 l 1
 889 227 l 1
 811 125 l 1
 97 125 l 1
 97 270 l 1
 411 682 l 1
 51 682 l 1
 51 839 l 1
EndSplineSet
Validated: 1
EndChar

StartChar: one
Encoding: 49 49 26
Width: 578
Flags: HW
LayerCount: 2
Fore
SplineSet
121 892 m 1
 479 892 l 1
 509 839 l 1
 509 116 l 1
 216 116 l 1
 216 671 l 1
 56 671 l 1
 56 807 l 1
 121 892 l 1
EndSplineSet
Validated: 1
EndChar

StartChar: two
Encoding: 50 50 27
Width: 970
Flags: HW
LayerCount: 2
Fore
SplineSet
150 909 m 1
 803 909 l 1
 896 815 l 1
 896 542 l 1
 794 408 l 1
 377 408 l 1
 377 326 l 1
 901 326 l 1
 901 278 l 1
 818 134 l 1
 82 134 l 1
 82 516 l 1
 193 602 l 1
 580 602 l 1
 580 693 l 1
 71 693 l 1
 71 773 l 1
 150 909 l 1
EndSplineSet
Validated: 1
EndChar

StartChar: three
Encoding: 51 51 28
Width: 916
Flags: HW
LayerCount: 2
Fore
SplineSet
100 911 m 1
 769 911 l 1
 851 804 l 1
 851 567 l 1
 803 519 l 1
 855 479 l 1
 855 225 l 1
 765 135 l 1
 67 135 l 1
 67 262 l 1
 104 310 l 1
 560 310 l 1
 560 409 l 1
 291 409 l 1
 291 488 l 1
 361 610 l 1
 532 610 l 1
 567 646 l 1
 567 697 l 1
 63 697 l 1
 63 847 l 1
 100 911 l 1
EndSplineSet
Validated: 1
EndChar

StartChar: four
Encoding: 52 52 29
Width: 988
Flags: HW
LayerCount: 2
Fore
SplineSet
71 898 m 1
 393 898 l 1
 396 569 l 1
 616 569 l 1
 616 898 l 1
 922 898 l 1
 922 122 l 1
 620 122 l 1
 620 344 l 1
 200 344 l 1
 71 474 l 1
 71 898 l 1
EndSplineSet
Validated: 1
EndChar

StartChar: five
Encoding: 53 53 30
Width: 978
Flags: HW
LayerCount: 2
Fore
SplineSet
905 898 m 1
 905 771 l 1
 844 692 l 1
 364 692 l 1
 364 605 l 1
 859 605 l 1
 902 549 l 1
 902 204 l 1
 821 122 l 1
 75 122 l 1
 75 203 l 1
 134 304 l 1
 570 304 l 1
 570 408 l 1
 72 408 l 1
 72 898 l 1
 905 898 l 1
EndSplineSet
Validated: 1
EndChar

StartChar: six
Encoding: 54 54 31
Width: 942
Flags: HW
LayerCount: 2
Fore
SplineSet
866 887 m 1
 872 793 l 1
 817 698 l 1
 380 698 l 1
 335 638 l 1
 335 350 l 1
 395 290 l 1
 561 290 l 1
 601 359 l 1
 555 419 l 1
 419 419 l 1
 419 499 l 1
 458 593 l 1
 799 593 l 1
 871 521 l 1
 871 205 l 1
 779 112 l 1
 139 112 l 1
 60 216 l 1
 60 772 l 1
 107 887 l 1
 866 887 l 1
EndSplineSet
Validated: 1
EndChar

StartChar: seven
Encoding: 55 55 32
Width: 902
Flags: HW
LayerCount: 2
Fore
SplineSet
97 886 m 1
 832 886 l 1
 832 663 l 1
 605 110 l 1
 306 110 l 1
 306 211 l 1
 490 660 l 1
 60 660 l 1
 60 796 l 1
 97 886 l 1
EndSplineSet
Validated: 1
EndChar

StartChar: eight
Encoding: 56 56 33
Width: 944
Flags: HW
LayerCount: 2
Fore
SplineSet
120 899 m 1
 806 899 l 1
 879 825 l 1
 879 576 l 1
 813 522 l 1
 879 474 l 1
 879 234 l 1
 769 124 l 1
 163 124 l 1
 55 232 l 1
 54 476 l 1
 117 529 l 1
 54 578 l 1
 55 834 l 1
 120 899 l 1
555 691 m 1
 381 691 l 1
 339 655 l 1
 392 602 l 1
 550 602 l 1
 596 654 l 1
 555 691 l 1
555 415 m 1
 381 415 l 1
 339 378 l 1
 392 325 l 1
 550 325 l 1
 596 377 l 1
 555 415 l 1
EndSplineSet
Validated: 1
EndChar

StartChar: nine
Encoding: 57 57 34
Width: 930
Flags: HW
LayerCount: 2
Fore
SplineSet
115 893 m 1
 805 893 l 1
 869 829 l 1
 869 217 l 1
 770 118 l 1
 57 118 l 1
 57 226 l 1
 118 306 l 1
 511 306 l 1
 592 387 l 1
 592 640 l 1
 510 703 l 1
 444 703 l 1
 335 675 l 1
 335 633 l 1
 395 590 l 1
 512 590 l 1
 512 470 l 1
 472 399 l 1
 151 399 l 1
 54 497 l 1
 54 818 l 1
 115 893 l 1
EndSplineSet
Validated: 1
EndChar

StartChar: zero
Encoding: 48 48 35
Width: 858
Flags: HW
LayerCount: 2
Fore
SplineSet
160 131 m 1
 60 232 l 1
 60 822 l 1
 148 906 l 1
 691 906 l 1
 785 783 l 1
 785 231 l 1
 685 131 l 1
 160 131 l 1
390 320 m 1
 449 320 l 1
 485 384 l 1
 485 655 l 1
 457 692 l 1
 362 692 l 1
 330 614 l 1
 330 399 l 1
 390 320 l 1
EndSplineSet
Validated: 1
EndChar

StartChar: glyph37
Encoding: 65 65 36
Width: 904
Flags: HW
LayerCount: 2
Fore
SplineSet
243 144 m 1
 243 144 146 142 81 142 c 0
 48 142 24 142 24 144 c 2
 24 271 l 1
 340 920 l 1
 617 920 l 1
 877 270 l 1
 877 144 l 1
 312 144 l 1
 383 326 l 1
 522 327 l 1
 416 584 l 1
 243 144 l 1
EndSplineSet
Validated: 1
EndChar

StartChar: glyph38
Encoding: 66 66 37
Width: 900
Flags: HW
LayerCount: 2
Fore
SplineSet
35 137 m 1
 35 912 l 1
 791 912 l 1
 862 821 l 1
 862 560 l 1
 783 524 l 1
 862 498 l 1
 862 235 l 1
 773 137 l 1
 357 137 l 1
 357 276 l 1
 416 334 l 1
 538 334 l 1
 538 377 l 1
 495 420 l 1
 277 420 l 1
 277 137 l 1
 35 137 l 1
346 593 m 1
 478 593 l 1
 539 659 l 1
 539 705 l 1
 305 705 l 1
 305 625 l 1
 346 593 l 1
EndSplineSet
Validated: 1
EndChar

StartChar: glyph39
Encoding: 67 67 38
Width: 900
Flags: HW
LayerCount: 2
Fore
SplineSet
859 892 m 1
 860 820 l 1
 801 679 l 1
 370 679 l 1
 320 628 l 1
 320 345 l 1
 371 305 l 1
 850 305 l 1
 850 212 l 1
 777 116 l 1
 133 116 l 1
 40 210 l 1
 40 779 l 1
 126 892 l 1
 859 892 l 1
EndSplineSet
Validated: 1
EndChar

StartChar: glyph40
Encoding: 68 68 39
Width: 970
Flags: HW
LayerCount: 2
Fore
SplineSet
38 113 m 1
 38 889 l 1
 842 889 l 1
 937 793 l 1
 937 227 l 1
 850 113 l 1
 386 113 l 1
 386 311 l 1
 595 311 l 1
 634 350 l 1
 634 350 634 468 634 547 c 0
 634 587 634 618 634 619 c 0
 633 623 581 673 581 673 c 1
 305 673 l 1
 305 113 l 1
 39 113 l 1
 38 113 l 1
EndSplineSet
Validated: 1
EndChar

StartChar: glyph41
Encoding: 69 69 40
Width: 910
Flags: HW
LayerCount: 2
Fore
SplineSet
859 889 m 1
 859 777 l 1
 819 682 l 1
 347 682 l 1
 347 597 l 1
 745 597 l 1
 743 536 l 1
 658 397 l 1
 346 397 l 1
 346 308 l 1
 867 308 l 1
 867 178 l 1
 817 113 l 1
 44 113 l 1
 44 889 l 1
 859 889 l 1
EndSplineSet
Validated: 1
EndChar

StartChar: glyph43
Encoding: 70 70 41
Width: 898
Flags: HW
LayerCount: 2
Fore
SplineSet
44 895 m 1
 855 895 l 1
 855 837 l 1
 793 686 l 1
 344 686 l 1
 344 600 l 1
 718 600 l 1
 718 536 l 1
 662 399 l 1
 342 399 l 1
 342 119 l 1
 44 119 l 1
 44 895 l 1
EndSplineSet
Validated: 1
EndChar

StartChar: glyph45
Encoding: 71 71 42
Width: 944
Flags: HW
LayerCount: 2
Fore
SplineSet
893 895 m 1
 893 826 l 1
 813 687 l 1
 369 687 l 1
 369 309 l 1
 620 309 l 1
 620 401 l 1
 458 401 l 1
 458 469 l 1
 513 604 l 1
 883 604 l 1
 883 119 l 1
 144 119 l 1
 41 222 l 1
 41 801 l 1
 134 895 l 1
 893 895 l 1
EndSplineSet
Validated: 1
EndChar

StartChar: glyph47
Encoding: 72 72 43
Width: 920
Flags: HW
LayerCount: 2
Fore
SplineSet
44 125 m 1
 43 901 l 1
 355 901 l 1
 355 611 l 1
 562 611 l 1
 562 901 l 1
 868 901 l 1
 868 125 l 1
 561 125 l 1
 561 395 l 1
 353 395 l 1
 353 125 l 1
 44 125 l 1
EndSplineSet
Validated: 1
EndChar

StartChar: glyph49
Encoding: 73 73 44
Width: 399
Flags: HW
LayerCount: 2
Fore
SplineSet
37 125 m 1
 40 901 l 1
 355 901 l 1
 355 125 l 1
 37 125 l 1
EndSplineSet
Validated: 1
EndChar

StartChar: glyph50
Encoding: 74 74 45
Width: 678
Flags: HW
LayerCount: 2
Fore
SplineSet
368 404 m 1
 366 895 l 1
 631 895 l 1
 634 221 l 1
 533 119 l 1
 56 119 l 1
 56 228 l 1
 80 320 l 1
 284 320 l 1
 368 404 l 1
EndSplineSet
Validated: 1
EndChar

StartChar: glyph51
Encoding: 75 75 46
Width: 916
Flags: HW
LayerCount: 2
Fore
SplineSet
40 903 m 1
 304 903 l 1
 304 586 l 1
 422 586 l 1
 490 669 l 1
 596 903 l 1
 862 903 l 1
 862 786 l 1
 696 458 l 1
 851 256 l 1
 851 128 l 1
 563 128 l 1
 414 388 l 1
 305 388 l 1
 305 128 l 1
 40 128 l 1
 40 903 l 1
EndSplineSet
Validated: 1
EndChar

StartChar: glyph52
Encoding: 76 76 47
Width: 906
Flags: HW
LayerCount: 2
Fore
SplineSet
46 906 m 1
 337 906 l 1
 337 329 l 1
 848 329 l 1
 848 234 l 1
 821 131 l 1
 46 131 l 1
 46 906 l 1
EndSplineSet
Validated: 1
EndChar

StartChar: glyph53
Encoding: 77 77 48
Width: 1104
Flags: HW
LayerCount: 2
Fore
SplineSet
49 902 m 1
 969 902 l 1
 1059 745 l 1
 1059 126 l 1
 779 126 l 1
 779 595 l 1
 725 647 l 1
 671 596 l 1
 671 126 l 1
 444 126 l 1
 444 593 l 1
 386 651 l 1
 334 603 l 1
 334 126 l 1
 49 126 l 1
 49 902 l 1
EndSplineSet
Validated: 1
EndChar

StartChar: glyph54
Encoding: 78 78 49
Width: 932
Flags: HW
LayerCount: 2
Fore
SplineSet
45 896 m 1
 783 896 l 1
 885 793 l 1
 885 121 l 1
 621 121 l 1
 621 609 l 1
 555 675 l 1
 371 675 l 1
 371 121 l 1
 45 121 l 1
 45 896 l 1
EndSplineSet
Validated: 1
EndChar

StartChar: glyph55
Encoding: 79 79 50
Width: 1018
Flags: HW
LayerCount: 2
Fore
SplineSet
177 898 m 1
 874 898 l 1
 963 782 l 1
 963 206 l 1
 899 122 l 1
 502 122 l 1
 502 257 l 1
 548 302 l 1
 618 302 l 1
 676 360 l 1
 676 601 l 1
 603 674 l 1
 429 674 l 1
 362 607 l 1
 362 366 l 1
 420 307 l 1
 420 122 l 1
 149 122 l 1
 57 215 l 1
 57 805 l 1
 177 898 l 1
EndSplineSet
Validated: 1
EndChar

StartChar: glyph56
Encoding: 80 80 51
Width: 958
Flags: HW
LayerCount: 2
Fore
SplineSet
46 124 m 1
 50 899 l 1
 774 899 l 1
 902 800 l 1
 902 510 l 1
 772 379 l 1
 408 379 l 1
 408 568 l 1
 564 568 l 1
 610 628 l 1
 610 684 l 1
 322 684 l 1
 322 124 l 1
 46 124 l 1
EndSplineSet
Validated: 1
EndChar

StartChar: glyph58
Encoding: 81 81 52
Width: 982
Flags: HW
LayerCount: 2
Fore
SplineSet
136 927 m 1
 854 927 l 1
 941 839 l 1
 941 225 l 1
 846 152 l 1
 685 152 l 1
 716 98 l 1
 716 7 l 1
 556 7 l 1
 473 152 l 1
 473 281 l 1
 519 337 l 1
 607 337 l 1
 673 437 l 1
 673 588 l 1
 608 701 l 1
 395 701 l 1
 343 632 l 1
 343 391 l 1
 392 344 l 1
 392 152 l 1
 131 152 l 1
 44 240 l 1
 44 806 l 1
 136 927 l 1
EndSplineSet
Validated: 1
EndChar

StartChar: glyph60
Encoding: 82 82 53
Width: 884
Flags: HW
LayerCount: 2
Fore
SplineSet
49 893 m 1
 765 893 l 1
 834 802 l 1
 834 428 l 1
 734 328 l 1
 809 230 l 1
 809 118 l 1
 522 118 l 1
 408 305 l 1
 408 510 l 1
 494 510 l 1
 577 573 l 1
 577 660 l 1
 325 660 l 1
 325 118 l 1
 49 118 l 1
 49 893 l 1
EndSplineSet
Validated: 1
EndChar

StartChar: glyph61
Encoding: 83 83 54
Width: 932
Flags: HW
LayerCount: 2
Fore
SplineSet
881 902 m 1
 881 788 l 1
 814 701 l 1
 380 701 l 1
 380 616 l 1
 753 616 l 1
 880 518 l 1
 880 198 l 1
 788 126 l 1
 63 126 l 1
 63 218 l 1
 130 285 l 1
 597 285 l 1
 597 381 l 1
 153 381 l 1
 49 469 l 1
 49 802 l 1
 126 902 l 1
 881 902 l 1
EndSplineSet
Validated: 1
EndChar

StartChar: glyph62
Encoding: 84 84 55
Width: 974
Flags: HW
LayerCount: 2
Fore
SplineSet
45 774 m 1
 112 887 l 1
 932 887 l 1
 932 756 l 1
 879 663 l 1
 627 663 l 1
 627 112 l 1
 330 112 l 1
 330 660 l 1
 45 660 l 1
 45 774 l 1
EndSplineSet
Validated: 1
EndChar

StartChar: glyph63
Encoding: 85 85 56
Width: 894
Flags: HW
LayerCount: 2
Fore
SplineSet
49 905 m 1
 312 905 l 1
 312 416 l 1
 379 328 l 1
 479 328 l 1
 549 420 l 1
 549 905 l 1
 834 905 l 1
 834 234 l 1
 834 234 760 129 755 129 c 0
 750 129 139 129 139 129 c 1
 49 247 l 1
 49 905 l 1
EndSplineSet
Validated: 1
EndChar

StartChar: glyph64
Encoding: 86 86 57
Width: 960
Flags: HW
LayerCount: 2
Fore
SplineSet
45 901 m 1
 346 901 l 1
 514 493 l 1
 682 901 l 1
 907 901 l 1
 907 796 l 1
 631 125 l 1
 376 125 l 1
 283 219 l 1
 43 763 l 1
 45 901 l 1
EndSplineSet
Validated: 1
EndChar

StartChar: glyph65
Encoding: 87 87 58
Width: 1066
Flags: HW
LayerCount: 2
Fore
SplineSet
56 906 m 1
 300 906 l 1
 300 353 l 1
 349 307 l 1
 408 353 l 1
 408 906 l 1
 660 906 l 1
 660 349 l 1
 708 304 l 1
 748 349 l 1
 748 906 l 1
 1003 906 l 1
 1003 131 l 1
 133 131 l 1
 56 233 l 1
 56 906 l 1
EndSplineSet
Validated: 1
EndChar

StartChar: glyph66
Encoding: 88 88 59
Width: 920
Flags: HW
LayerCount: 2
Fore
SplineSet
55 901 m 1
 330 901 l 1
 467 612 l 1
 503 612 l 1
 623 901 l 1
 853 901 l 1
 853 816 l 1
 724 501 l 1
 876 235 l 1
 876 125 l 1
 596 125 l 1
 445 388 l 1
 403 388 l 1
 294 125 l 1
 56 125 l 1
 56 264 l 1
 171 512 l 1
 55 756 l 1
 55 901 l 1
EndSplineSet
Validated: 1
EndChar

StartChar: glyph67
Encoding: 89 89 60
Width: 870
Flags: HW
LayerCount: 2
Fore
SplineSet
338 903 m 1
 338 634 l 1
 418 554 l 1
 529 554 l 1
 561 610 l 1
 561 903 l 1
 812 903 l 1
 812 219 l 1
 742 128 l 1
 50 128 l 1
 50 213 l 1
 111 293 l 1
 529 293 l 1
 529 377 l 1
 109 377 l 1
 49 424 l 1
 46 903 l 1
 338 903 l 1
EndSplineSet
Validated: 1
EndChar

StartChar: glyph68
Encoding: 90 90 61
Width: 940
Flags: HW
LayerCount: 2
Fore
SplineSet
51 839 m 1
 114 901 l 1
 785 901 l 1
 785 706 l 1
 524 319 l 1
 889 319 l 1
 889 227 l 1
 811 125 l 1
 97 125 l 1
 97 270 l 1
 411 682 l 1
 51 682 l 1
 51 839 l 1
EndSplineSet
Validated: 1
EndChar
